<svg width="326" height="44" viewBox="0 0 326 44" fill="none" xmlns="http://www.w3.org/2000/svg">
<line x1="0.333496" y1="21.5" x2="125" y2="21.5" stroke="#262626"/>
<path d="M145.844 20.9212L145.844 20.9212L145.843 20.924C144.973 23.4974 144.534 25.9874 144.534 28.3915V35.5374C144.534 36.3658 145.205 37.0374 146.034 37.0374H155.231C156.059 37.0374 156.731 36.3658 156.731 35.5374L156.731 28.3116L156.731 28.3074C156.705 25.2764 157.189 22.5199 158.173 20.0314C159.078 17.7775 160.173 15.6054 161.458 13.5149C161.881 12.8261 161.699 11.9128 161.014 11.4567L155.923 8.06382L155.923 8.06382C155.374 7.69814 154.637 7.72756 154.129 8.17732C152.424 9.68636 150.874 11.4881 149.478 13.579L149.477 13.58C147.95 15.878 146.739 18.3253 145.844 20.9212ZM165.556 20.9212L165.555 20.924C164.684 23.4974 164.245 25.9874 164.245 28.3915V35.5374C164.245 36.3658 164.917 37.0374 165.745 37.0374H174.943C175.771 37.0374 176.443 36.3658 176.443 35.5374L176.443 28.3116L176.443 28.3074C176.417 25.2765 176.9 22.5201 177.884 20.0317C178.789 17.7777 179.884 15.6055 181.17 13.5149C181.593 12.8261 181.411 11.9128 180.726 11.4567L175.635 8.06382L175.635 8.06382C175.086 7.69814 174.348 7.72756 173.84 8.17732L174.172 8.55167L173.84 8.17732C172.136 9.68636 170.586 11.4881 169.189 13.579L169.189 13.58C167.662 15.878 166.451 18.3253 165.556 20.9212Z" fill="url(#paint0_linear_108_2660)" stroke="#CAFF33"/>
<line x1="201" y1="21.5" x2="325.667" y2="21.5" stroke="#262626"/>
<defs>
<linearGradient id="paint0_linear_108_2660" x1="163.151" y1="8.06677" x2="163.151" y2="36.5374" gradientUnits="userSpaceOnUse">
<stop stop-color="#CAFF33"/>
<stop offset="1" stop-color="#191919"/>
</linearGradient>
</defs>
</svg>
