<svg width="31" height="32" viewBox="0 0 31 32" fill="none" xmlns="http://www.w3.org/2000/svg">
<rect x="0.241699" y="0.896729" width="30.3466" height="30.2555" rx="15.1278" fill="#CAFF33"/>
<path fill-rule="evenodd" clip-rule="evenodd" d="M15.4152 11.3887C15.7012 11.3887 15.9331 11.6193 15.9331 11.9037V15.5093H19.5585C19.8446 15.5093 20.0765 15.7399 20.0765 16.0243C20.0765 16.3088 19.8446 16.5394 19.5585 16.5394H15.9331V20.1449C15.9331 20.4294 15.7012 20.66 15.4152 20.66C15.1291 20.66 14.8973 20.4294 14.8973 20.1449V16.5394H11.2718C10.9858 16.5394 10.7539 16.3088 10.7539 16.0243C10.7539 15.7399 10.9858 15.5093 11.2718 15.5093H14.8973V11.9037C14.8973 11.6193 15.1291 11.3887 15.4152 11.3887Z" fill="#1A1A1A"/>
</svg>
