<svg width="151" height="62" viewBox="0 0 151 62" fill="none" xmlns="http://www.w3.org/2000/svg">
<rect x="0.46875" y="0.661621" width="149.78" height="60.7258" rx="8.26391" fill="#22251B"/>
<rect x="14.2417" y="15.8967" width="30.3466" height="30.2555" rx="15.1278" fill="#CAFF33"/>
<path fill-rule="evenodd" clip-rule="evenodd" d="M29.4152 26.3887C29.7012 26.3887 29.9331 26.6193 29.9331 26.9037V30.5093H33.5585C33.8446 30.5093 34.0765 30.7399 34.0765 31.0243C34.0765 31.3088 33.8446 31.5394 33.5585 31.5394H29.9331V35.1449C29.9331 35.4294 29.7012 35.66 29.4152 35.66C29.1291 35.66 28.8973 35.4294 28.8973 35.1449V31.5394H25.2718C24.9858 31.5394 24.7539 31.3088 24.7539 31.0243C24.7539 30.7399 24.9858 30.5093 25.2718 30.5093H28.8973V26.9037C28.8973 26.6193 29.1291 26.3887 29.4152 26.3887Z" fill="#1A1A1A"/>
<path d="M52.0949 24.4435V23.2039H58.9953V24.4435H52.0949ZM54.8082 27.1017V20.4493H56.2544V27.1017H54.8082ZM67.7976 27.8179C67.0079 27.8179 66.3101 27.6618 65.7041 27.3496C65.1072 27.0374 64.593 26.5691 64.1615 25.9448L65.1807 24.774C65.6306 25.4168 66.0622 25.8621 66.4754 26.11C66.8886 26.358 67.3798 26.4819 67.9491 26.4819C68.298 26.4819 68.6148 26.4268 68.8995 26.3166C69.1841 26.2064 69.4091 26.0549 69.5744 25.8621C69.7396 25.6693 69.8223 25.4489 69.8223 25.201C69.8223 25.0357 69.7947 24.8796 69.7396 24.7327C69.6845 24.5858 69.5973 24.4527 69.4779 24.3333C69.3678 24.2139 69.2208 24.1037 69.0372 24.0027C68.8627 23.9017 68.6561 23.8145 68.4174 23.741C68.1787 23.6584 67.9032 23.5895 67.591 23.5344C66.9299 23.4059 66.379 23.2131 65.9382 22.956C65.5067 22.6989 65.1807 22.3729 64.9603 21.9781C64.7491 21.5832 64.6436 21.1241 64.6436 20.6008C64.6436 20.2151 64.7262 19.857 64.8915 19.5265C65.0659 19.1959 65.3001 18.9112 65.5939 18.6725C65.8969 18.4246 66.2504 18.2364 66.6544 18.1078C67.0584 17.9701 67.4946 17.9012 67.9629 17.9012C68.7066 17.9012 69.354 18.0481 69.9049 18.342C70.465 18.6266 70.9058 19.0444 71.2271 19.5953L70.1804 20.6283C69.9049 20.1784 69.5744 19.8341 69.1887 19.5953C68.8122 19.3566 68.3899 19.2372 67.9216 19.2372C67.5635 19.2372 67.2513 19.2923 66.985 19.4025C66.7187 19.5127 66.5075 19.6688 66.3514 19.8708C66.2045 20.0636 66.1311 20.2932 66.1311 20.5594C66.1311 20.7523 66.1678 20.9313 66.2412 21.0966C66.3147 21.2527 66.4249 21.395 66.5718 21.5236C66.7279 21.6429 66.9345 21.7531 67.1916 21.8541C67.4487 21.9459 67.7563 22.0286 68.1144 22.102C68.6194 22.2122 69.0693 22.3545 69.4642 22.529C69.859 22.6943 70.1941 22.8917 70.4696 23.1213C70.7451 23.3508 70.9517 23.6079 71.0894 23.8926C71.2363 24.1772 71.3098 24.4848 71.3098 24.8154C71.3098 25.4306 71.1674 25.9631 70.8828 26.413C70.5982 26.863 70.1941 27.2119 69.6708 27.4598C69.1474 27.6985 68.523 27.8179 67.7976 27.8179ZM66.9712 28.9335V22.6805L68.3072 23.135V28.9335H66.9712ZM68.8581 23.135L67.5221 22.6805V16.9095H68.8581V23.135ZM75.6073 27.7766C74.9738 27.7766 74.3999 27.6343 73.8857 27.3496C73.3715 27.0558 72.9445 26.638 72.6048 26.0963L73.4312 25.1735C73.8627 25.6509 74.2392 25.9769 74.5606 26.1514C74.8819 26.3258 75.2309 26.413 75.6073 26.413C75.9838 26.413 76.3235 26.3304 76.6265 26.1651C76.9296 25.9998 77.1683 25.7749 77.3427 25.4902C77.5264 25.2056 77.6182 24.8888 77.6182 24.5399C77.6182 24.1726 77.531 23.8466 77.3565 23.562C77.1912 23.2682 76.9663 23.0386 76.6816 22.8733C76.397 22.6989 76.0756 22.6116 75.7175 22.6116C75.5431 22.6116 75.3778 22.6254 75.2217 22.653C75.0656 22.6713 74.8773 22.7218 74.657 22.8045C74.4366 22.8871 74.1474 23.0157 73.7893 23.1901L73.0042 22.1296L73.5689 18.0389H78.7752V19.4163H74.5055L74.7947 19.1546L74.3402 22.2122L73.9959 21.8128C74.0877 21.721 74.2438 21.6337 74.4642 21.5511C74.6845 21.4593 74.9279 21.3858 75.1941 21.3307C75.4696 21.2665 75.7313 21.2343 75.9792 21.2343C76.5669 21.2343 77.0902 21.3721 77.5493 21.6475C78.0176 21.9138 78.3849 22.2857 78.6512 22.7631C78.9267 23.2406 79.0644 23.787 79.0644 24.4022C79.0644 25.0357 78.9129 25.6096 78.6099 26.1238C78.3069 26.6288 77.8937 27.0328 77.3703 27.3358C76.8469 27.6297 76.2593 27.7766 75.6073 27.7766ZM84.069 27.8179C83.3344 27.8179 82.7009 27.6159 82.1683 27.2119C81.6449 26.8079 81.2409 26.2386 80.9563 25.504C80.6716 24.7603 80.5293 23.8788 80.5293 22.8596C80.5293 21.8403 80.6716 20.9635 80.9563 20.2289C81.2409 19.4851 81.6449 18.9112 82.1683 18.5072C82.7009 18.1032 83.3344 17.9012 84.069 17.9012C84.8036 17.9012 85.4371 18.1032 85.9697 18.5072C86.5023 18.9112 86.9109 19.4851 87.1955 20.2289C87.4802 20.9635 87.6225 21.8403 87.6225 22.8596C87.6225 23.8788 87.4802 24.7603 87.1955 25.504C86.9109 26.2386 86.5023 26.8079 85.9697 27.2119C85.4371 27.6159 84.8036 27.8179 84.069 27.8179ZM84.069 26.4681C84.7393 26.4681 85.2581 26.1559 85.6254 25.5316C85.9927 24.898 86.1763 24.0073 86.1763 22.8596C86.1763 21.7118 85.9927 20.8257 85.6254 20.2013C85.2581 19.5678 84.7393 19.251 84.069 19.251C83.3987 19.251 82.8799 19.5678 82.5126 20.2013C82.1454 20.8257 81.9617 21.7118 81.9617 22.8596C81.9617 24.0073 82.1454 24.898 82.5126 25.5316C82.8799 26.1559 83.3987 26.4681 84.069 26.4681ZM92.4351 27.8179C91.7006 27.8179 91.067 27.6159 90.5344 27.2119C90.0111 26.8079 89.6071 26.2386 89.3224 25.504C89.0378 24.7603 88.8954 23.8788 88.8954 22.8596C88.8954 21.8403 89.0378 20.9635 89.3224 20.2289C89.6071 19.4851 90.0111 18.9112 90.5344 18.5072C91.067 18.1032 91.7006 17.9012 92.4351 17.9012C93.1697 17.9012 93.8033 18.1032 94.3358 18.5072C94.8684 18.9112 95.277 19.4851 95.5617 20.2289C95.8463 20.9635 95.9886 21.8403 95.9886 22.8596C95.9886 23.8788 95.8463 24.7603 95.5617 25.504C95.277 26.2386 94.8684 26.8079 94.3358 27.2119C93.8033 27.6159 93.1697 27.8179 92.4351 27.8179ZM92.4351 26.4681C93.1054 26.4681 93.6242 26.1559 93.9915 25.5316C94.3588 24.898 94.5424 24.0073 94.5424 22.8596C94.5424 21.7118 94.3588 20.8257 93.9915 20.2013C93.6242 19.5678 93.1054 19.251 92.4351 19.251C91.7649 19.251 91.2461 19.5678 90.8788 20.2013C90.5115 20.8257 90.3278 21.7118 90.3278 22.8596C90.3278 24.0073 90.5115 24.898 90.8788 25.5316C91.2461 26.1559 91.7649 26.4681 92.4351 26.4681ZM100.801 27.8179C100.067 27.8179 99.4331 27.6159 98.9006 27.2119C98.3772 26.8079 97.9732 26.2386 97.6885 25.504C97.4039 24.7603 97.2616 23.8788 97.2616 22.8596C97.2616 21.8403 97.4039 20.9635 97.6885 20.2289C97.9732 19.4851 98.3772 18.9112 98.9006 18.5072C99.4331 18.1032 100.067 17.9012 100.801 17.9012C101.536 17.9012 102.169 18.1032 102.702 18.5072C103.235 18.9112 103.643 19.4851 103.928 20.2289C104.212 20.9635 104.355 21.8403 104.355 22.8596C104.355 23.8788 104.212 24.7603 103.928 25.504C103.643 26.2386 103.235 26.8079 102.702 27.2119C102.169 27.6159 101.536 27.8179 100.801 27.8179ZM100.801 26.4681C101.472 26.4681 101.99 26.1559 102.358 25.5316C102.725 24.898 102.909 24.0073 102.909 22.8596C102.909 21.7118 102.725 20.8257 102.358 20.2013C101.99 19.5678 101.472 19.251 100.801 19.251C100.131 19.251 99.6122 19.5678 99.2449 20.2013C98.8776 20.8257 98.694 21.7118 98.694 22.8596C98.694 24.0073 98.8776 24.898 99.2449 25.5316C99.6122 26.1559 100.131 26.4681 100.801 26.4681ZM106.206 30.1456L105.683 29.512C106.004 29.3284 106.266 29.1172 106.468 28.8784C106.67 28.6397 106.771 28.4331 106.771 28.2586C106.771 28.1668 106.748 28.075 106.702 27.9832C106.656 27.9005 106.56 27.7812 106.413 27.6251C106.229 27.4506 106.11 27.3037 106.055 27.1843C106 27.065 105.972 26.9364 105.972 26.7987C105.972 26.5783 106.05 26.4039 106.206 26.2753C106.362 26.1376 106.564 26.0687 106.812 26.0687C107.042 26.0687 107.248 26.1376 107.432 26.2753C107.625 26.4039 107.772 26.5875 107.873 26.8262C107.983 27.0558 108.038 27.3221 108.038 27.6251C108.038 27.9005 107.992 28.1668 107.9 28.4239C107.808 28.681 107.68 28.9198 107.515 29.1401C107.349 29.3605 107.157 29.5579 106.936 29.7324C106.716 29.9068 106.472 30.0446 106.206 30.1456ZM112.839 27.8179C112.105 27.8179 111.471 27.6159 110.939 27.2119C110.415 26.8079 110.011 26.2386 109.727 25.504C109.442 24.7603 109.3 23.8788 109.3 22.8596C109.3 21.8403 109.442 20.9635 109.727 20.2289C110.011 19.4851 110.415 18.9112 110.939 18.5072C111.471 18.1032 112.105 17.9012 112.839 17.9012C113.574 17.9012 114.207 18.1032 114.74 18.5072C115.273 18.9112 115.681 19.4851 115.966 20.2289C116.251 20.9635 116.393 21.8403 116.393 22.8596C116.393 23.8788 116.251 24.7603 115.966 25.504C115.681 26.2386 115.273 26.8079 114.74 27.2119C114.207 27.6159 113.574 27.8179 112.839 27.8179ZM112.839 26.4681C113.51 26.4681 114.028 26.1559 114.396 25.5316C114.763 24.898 114.947 24.0073 114.947 22.8596C114.947 21.7118 114.763 20.8257 114.396 20.2013C114.028 19.5678 113.51 19.251 112.839 19.251C112.169 19.251 111.65 19.5678 111.283 20.2013C110.916 20.8257 110.732 21.7118 110.732 22.8596C110.732 24.0073 110.916 24.898 111.283 25.5316C111.65 26.1559 112.169 26.4681 112.839 26.4681ZM121.205 27.8179C120.471 27.8179 119.837 27.6159 119.305 27.2119C118.781 26.8079 118.377 26.2386 118.093 25.504C117.808 24.7603 117.666 23.8788 117.666 22.8596C117.666 21.8403 117.808 20.9635 118.093 20.2289C118.377 19.4851 118.781 18.9112 119.305 18.5072C119.837 18.1032 120.471 17.9012 121.205 17.9012C121.94 17.9012 122.574 18.1032 123.106 18.5072C123.639 18.9112 124.047 19.4851 124.332 20.2289C124.617 20.9635 124.759 21.8403 124.759 22.8596C124.759 23.8788 124.617 24.7603 124.332 25.504C124.047 26.2386 123.639 26.8079 123.106 27.2119C122.574 27.6159 121.94 27.8179 121.205 27.8179ZM121.205 26.4681C121.876 26.4681 122.395 26.1559 122.762 25.5316C123.129 24.898 123.313 24.0073 123.313 22.8596C123.313 21.7118 123.129 20.8257 122.762 20.2013C122.395 19.5678 121.876 19.251 121.205 19.251C120.535 19.251 120.016 19.5678 119.649 20.2013C119.282 20.8257 119.098 21.7118 119.098 22.8596C119.098 24.0073 119.282 24.898 119.649 25.5316C120.016 26.1559 120.535 26.4681 121.205 26.4681Z" fill="white"/>
<path d="M52.61 46.3689V38.6559H53.4474L56.4114 43.471L56.0147 43.46L59.0118 38.6559H59.7941V46.3689H58.9347V42.843C58.9347 42.1818 58.9457 41.5868 58.9677 41.058C58.9897 40.5291 59.0301 40.0038 59.0889 39.4823L59.2432 39.7908L56.4775 44.1321H55.8825L53.194 39.8459L53.3152 39.4823C53.374 39.9745 53.4144 40.4813 53.4364 41.0029C53.4584 41.5171 53.4695 42.1304 53.4695 42.843V46.3689H52.61ZM64.283 46.4791C63.7101 46.4791 63.1995 46.3505 62.7515 46.0934C62.3107 45.8363 61.9618 45.4801 61.7047 45.0246C61.4549 44.5692 61.3301 44.0513 61.3301 43.471C61.3301 42.8981 61.4549 42.3875 61.7047 41.9394C61.9618 41.4914 62.3107 41.1388 62.7515 40.8817C63.1995 40.6246 63.7101 40.496 64.283 40.496C64.8487 40.496 65.3518 40.6246 65.7926 40.8817C66.2407 41.1388 66.5896 41.4914 66.8393 41.9394C67.0964 42.3875 67.225 42.8981 67.225 43.471C67.225 44.0513 67.0964 44.5692 66.8393 45.0246C66.5896 45.4801 66.2407 45.8363 65.7926 46.0934C65.3518 46.3505 64.8487 46.4791 64.283 46.4791ZM64.283 45.6968C64.6871 45.6968 65.047 45.6013 65.3629 45.4103C65.6787 45.2119 65.9248 44.9475 66.1011 44.6169C66.2774 44.279 66.3655 43.8971 66.3655 43.471C66.3655 43.045 66.2774 42.6667 66.1011 42.3361C65.9248 42.0056 65.6787 41.7485 65.3629 41.5648C65.047 41.3738 64.6871 41.2783 64.283 41.2783C63.879 41.2783 63.5154 41.3738 63.1922 41.5648C62.8763 41.7485 62.6266 42.0092 62.4429 42.3471C62.2666 42.6777 62.1822 43.0523 62.1895 43.471C62.1822 43.8971 62.2666 44.279 62.4429 44.6169C62.6266 44.9475 62.8763 45.2119 63.1922 45.4103C63.5154 45.6013 63.879 45.6968 64.283 45.6968ZM68.4307 46.3689V40.6172H69.246L69.2791 41.8182L69.1469 41.8733C69.2203 41.6236 69.3636 41.3959 69.5766 41.1902C69.7896 40.9845 70.043 40.8192 70.3369 40.6943C70.638 40.5621 70.9466 40.496 71.2624 40.496C71.6885 40.496 72.0447 40.5805 72.3312 40.7494C72.6177 40.9184 72.8344 41.1792 72.9813 41.5318C73.1282 41.8843 73.2017 42.3324 73.2017 42.876V46.3689H72.3643V42.9201C72.3643 42.5381 72.3129 42.2259 72.21 41.9835C72.1145 41.7338 71.9639 41.5501 71.7583 41.4326C71.5526 41.3151 71.2992 41.26 70.998 41.2673C70.7482 41.2673 70.5168 41.3114 70.3038 41.3995C70.0908 41.4803 69.9071 41.5942 69.7529 41.7411C69.5986 41.888 69.4774 42.057 69.3893 42.248C69.3011 42.4389 69.2571 42.6446 69.2571 42.865V46.3689H68.8494C68.7979 46.3689 68.7392 46.3689 68.6731 46.3689C68.607 46.3689 68.5262 46.3689 68.4307 46.3689ZM75.5726 46.3689V39.1077H76.399V46.3689H75.5726ZM74.2724 41.4106V40.6172H77.8534V41.4106H74.2724ZM78.8682 46.3689V38.2152H79.6945V41.8733L79.5293 42.0386C79.6101 41.7374 79.7607 41.473 79.981 41.2453C80.2014 41.0102 80.4585 40.8266 80.7523 40.6943C81.0535 40.5621 81.3583 40.496 81.6669 40.496C82.1076 40.496 82.4749 40.5805 82.7687 40.7494C83.0625 40.9184 83.2792 41.1792 83.4188 41.5318C83.5657 41.8843 83.6392 42.3324 83.6392 42.876V46.3689H82.8018V42.9201C82.8018 42.5381 82.7504 42.2259 82.6475 41.9835C82.552 41.7338 82.4014 41.5501 82.1958 41.4326C81.9901 41.3151 81.733 41.26 81.4245 41.2673C81.182 41.2673 80.9543 41.3114 80.7413 41.3995C80.5283 41.4803 80.3446 41.5942 80.1904 41.7411C80.0361 41.888 79.9149 42.057 79.8268 42.248C79.7386 42.4389 79.6945 42.6446 79.6945 42.865V46.3689H79.2869C79.2354 46.3689 79.1767 46.3689 79.1106 46.3689C79.0444 46.3689 78.9636 46.3689 78.8682 46.3689ZM85.2388 46.3689V38.2152H86.0652V46.3689H85.2388ZM88.4998 48.9032L89.6127 46.1926L89.6898 46.9749L86.803 40.6172H87.7395L89.7119 45.0246C89.7706 45.1422 89.8294 45.2817 89.8882 45.4433C89.9469 45.5976 90.002 45.7519 90.0534 45.9061L89.7449 45.8731C89.7963 45.7482 89.8441 45.6196 89.8882 45.4874C89.9396 45.3552 89.9873 45.2266 90.0314 45.1018L91.7613 40.6172H92.7089L90.384 46.3689L89.3923 48.9032H88.4998ZM96.6326 46.3689V45.5535H97.8777V39.4713H96.6326V38.6559H99.9823V39.4713H98.7372V45.5535H99.9823V46.3689H96.6326ZM101.562 46.3689V40.6172H102.377L102.41 41.8182L102.278 41.8733C102.351 41.6236 102.495 41.3959 102.708 41.1902C102.921 40.9845 103.174 40.8192 103.468 40.6943C103.769 40.5621 104.078 40.496 104.393 40.496C104.819 40.496 105.176 40.5805 105.462 40.7494C105.749 40.9184 105.965 41.1792 106.112 41.5318C106.259 41.8843 106.333 42.3324 106.333 42.876V46.3689H105.495V42.9201C105.495 42.5381 105.444 42.2259 105.341 41.9835C105.245 41.7338 105.095 41.5501 104.889 41.4326C104.684 41.3151 104.43 41.26 104.129 41.2673C103.879 41.2673 103.648 41.3114 103.435 41.3995C103.222 41.4803 103.038 41.5942 102.884 41.7411C102.73 41.888 102.608 42.057 102.52 42.248C102.432 42.4389 102.388 42.6446 102.388 42.865V46.3689H101.98C101.929 46.3689 101.87 46.3689 101.804 46.3689C101.738 46.3689 101.657 46.3689 101.562 46.3689ZM110.334 46.4791C109.791 46.4791 109.306 46.3505 108.88 46.0934C108.454 45.829 108.116 45.4727 107.866 45.0246C107.624 44.5692 107.503 44.055 107.503 43.482C107.503 42.9091 107.624 42.3985 107.866 41.9505C108.116 41.495 108.454 41.1388 108.88 40.8817C109.306 40.6246 109.794 40.496 110.345 40.496C110.837 40.496 111.286 40.5952 111.69 40.7935C112.094 40.9845 112.417 41.2526 112.659 41.5979L112.174 42.1929C112.035 42.0092 111.866 41.8476 111.668 41.7081C111.477 41.5685 111.267 41.462 111.039 41.3885C110.819 41.3077 110.599 41.2673 110.378 41.2673C109.989 41.2673 109.64 41.3665 109.332 41.5648C109.023 41.7558 108.777 42.0166 108.593 42.3471C108.417 42.6777 108.329 43.056 108.329 43.482C108.329 43.9081 108.417 44.2901 108.593 44.628C108.777 44.9585 109.023 45.2193 109.332 45.4103C109.64 45.6013 109.985 45.6968 110.367 45.6968C110.588 45.6968 110.804 45.6637 111.017 45.5976C111.23 45.5241 111.432 45.4213 111.623 45.2891C111.814 45.1569 111.991 44.9916 112.152 44.7932L112.637 45.3882C112.387 45.7188 112.053 45.9832 111.634 46.1816C111.216 46.3799 110.782 46.4791 110.334 46.4791ZM116.255 46.4791C115.682 46.4791 115.172 46.3505 114.724 46.0934C114.283 45.8363 113.934 45.4801 113.677 45.0246C113.427 44.5692 113.302 44.0513 113.302 43.471C113.302 42.8981 113.427 42.3875 113.677 41.9394C113.934 41.4914 114.283 41.1388 114.724 40.8817C115.172 40.6246 115.682 40.496 116.255 40.496C116.821 40.496 117.324 40.6246 117.765 40.8817C118.213 41.1388 118.562 41.4914 118.812 41.9394C119.069 42.3875 119.197 42.8981 119.197 43.471C119.197 44.0513 119.069 44.5692 118.812 45.0246C118.562 45.4801 118.213 45.8363 117.765 46.0934C117.324 46.3505 116.821 46.4791 116.255 46.4791ZM116.255 45.6968C116.659 45.6968 117.019 45.6013 117.335 45.4103C117.651 45.2119 117.897 44.9475 118.073 44.6169C118.25 44.279 118.338 43.8971 118.338 43.471C118.338 43.045 118.25 42.6667 118.073 42.3361C117.897 42.0056 117.651 41.7485 117.335 41.5648C117.019 41.3738 116.659 41.2783 116.255 41.2783C115.851 41.2783 115.488 41.3738 115.164 41.5648C114.849 41.7485 114.599 42.0092 114.415 42.3471C114.239 42.6777 114.154 43.0523 114.162 43.471C114.154 43.8971 114.239 44.279 114.415 44.6169C114.599 44.9475 114.849 45.2119 115.164 45.4103C115.488 45.6013 115.851 45.6968 116.255 45.6968ZM120.392 46.3689V40.6172H121.218L121.24 41.9284L121.075 41.9835C121.134 41.7631 121.229 41.5648 121.362 41.3885C121.501 41.2049 121.666 41.0469 121.857 40.9147C122.048 40.7825 122.258 40.6833 122.485 40.6172C122.713 40.5438 122.952 40.507 123.202 40.507C123.503 40.507 123.771 40.5584 124.006 40.6613C124.248 40.7568 124.45 40.9257 124.612 41.1681C124.781 41.4032 124.909 41.7154 124.998 42.1047L124.799 42.0056L124.876 41.8182C124.95 41.6493 125.056 41.4877 125.196 41.3334C125.343 41.1718 125.508 41.0286 125.692 40.9037C125.883 40.7788 126.088 40.6833 126.309 40.6172C126.537 40.5438 126.768 40.507 127.003 40.507C127.407 40.507 127.749 40.5952 128.028 40.7715C128.307 40.9404 128.516 41.2012 128.656 41.5538C128.803 41.9064 128.876 42.3545 128.876 42.8981V46.3689H128.028V42.9421C128.028 42.5602 127.98 42.248 127.885 42.0056C127.789 41.7631 127.646 41.5832 127.455 41.4656C127.271 41.3408 127.036 41.2783 126.75 41.2783C126.5 41.2783 126.268 41.3224 126.055 41.4106C125.85 41.4914 125.67 41.6089 125.516 41.7631C125.369 41.9101 125.251 42.079 125.163 42.27C125.082 42.461 125.042 42.6667 125.042 42.887V46.3689H124.204V42.9311C124.204 42.5638 124.153 42.259 124.05 42.0166C123.955 41.7742 123.811 41.5905 123.62 41.4656C123.429 41.3408 123.194 41.2783 122.915 41.2783C122.673 41.2783 122.449 41.3224 122.243 41.4106C122.037 41.4914 121.857 41.6052 121.703 41.7521C121.556 41.899 121.439 42.068 121.351 42.259C121.27 42.45 121.229 42.6556 121.229 42.876V46.3689H120.392ZM132.977 46.4791C132.404 46.4791 131.893 46.3542 131.445 46.1045C131.004 45.8547 130.659 45.5058 130.409 45.0577C130.159 44.6096 130.035 44.0954 130.035 43.5151C130.035 43.067 130.104 42.663 130.244 42.3031C130.384 41.9358 130.578 41.6162 130.828 41.3444C131.085 41.0726 131.39 40.8633 131.742 40.7164C132.095 40.5621 132.477 40.485 132.888 40.485C133.278 40.485 133.63 40.5548 133.946 40.6943C134.269 40.8339 134.545 41.0286 134.773 41.2783C135.008 41.5207 135.184 41.8109 135.301 42.1488C135.419 42.4867 135.47 42.8577 135.456 43.2617L135.445 43.6473H130.652L130.53 42.9531H134.817L134.618 43.1405V42.876C134.604 42.6116 134.526 42.3581 134.387 42.1157C134.247 41.866 134.049 41.664 133.792 41.5097C133.542 41.3555 133.241 41.2783 132.888 41.2783C132.477 41.2783 132.121 41.3628 131.82 41.5318C131.518 41.6934 131.287 41.9358 131.125 42.259C130.964 42.5822 130.883 42.9825 130.883 43.46C130.883 43.9154 130.971 44.3121 131.147 44.65C131.324 44.9806 131.574 45.2377 131.897 45.4213C132.227 45.6049 132.624 45.6968 133.087 45.6968C133.359 45.6968 133.627 45.6527 133.891 45.5645C134.163 45.469 134.46 45.2854 134.784 45.0136L135.213 45.6086C135.044 45.7776 134.842 45.9282 134.607 46.0604C134.372 46.1853 134.115 46.2881 133.836 46.3689C133.557 46.4424 133.27 46.4791 132.977 46.4791Z" fill="#E4E4E7"/>
</svg>
