<svg width="32" height="31" viewBox="0 0 32 31" fill="none" xmlns="http://www.w3.org/2000/svg">
<rect x="0.881836" y="0.210205" width="30.3466" height="30.2555" rx="15.1278" fill="#CAFF33"/>
<path fill-rule="evenodd" clip-rule="evenodd" d="M18.7072 8.94287C18.4737 9.19302 18.4882 9.5841 18.7398 9.81638L20.4803 11.4237L13.362 11.4237C13.0187 11.4237 12.7405 11.7005 12.7405 12.0418C12.7405 12.3832 13.0187 12.6599 13.362 12.6599L20.4803 12.6599L18.7398 14.2673C18.4882 14.4996 18.4737 14.8906 18.7072 15.1408C18.9408 15.3909 19.334 15.4054 19.5856 15.1731L22.4859 12.4948C22.6126 12.3778 22.6845 12.2137 22.6845 12.0418C22.6845 11.87 22.6126 11.7059 22.4859 11.5889L19.5856 8.91052C19.334 8.67824 18.9408 8.69273 18.7072 8.94287ZM13.4031 15.5358C13.1695 15.2857 12.7763 15.2712 12.5247 15.5035L9.62438 18.1818C9.49774 18.2988 9.42578 18.4629 9.42578 18.6348C9.42578 18.8066 9.49774 18.9707 9.62438 19.0877L12.5247 21.7661C12.7763 21.9984 13.1695 21.9839 13.4031 21.7337C13.6366 21.4836 13.6221 21.0925 13.3705 20.8602L11.63 19.2529H18.7483C19.0916 19.2529 19.3698 18.9761 19.3698 18.6348C19.3698 18.2934 19.0916 18.0167 18.7483 18.0167H11.63L13.3705 16.4093C13.6221 16.177 13.6366 15.786 13.4031 15.5358Z" fill="#1C1C1C"/>
</svg>
